#!OML:ASF X:\für Bonn\!DataBase\2005_08_10_Bjorn_Final\c3d\bjorn.ASF
:FULLY-SPECIFIED
:DEGREES
626
root -0.412949 1.264 23.8688 -470.004 -178.44 368.169
lowerback 23.8243 1.1278 0.64869
upperback 8.34987 0.042669 -3.83374
thorax -4.06798 -0.589698 -4.49374
lowerneck -19.0073 -7.13539 -4.66539
upperneck 0.468783 -9.60861 8.17346
head 3.75321 -4.60521 2.4021
rclavicle 1.11319e-014 -3.73715e-014
rhumerus -218.429 -194.406 109.831
rradius 55.2796
rwrist -2.47263
rhand -20.901 13.1166
rfingers 7.12502
rthumb 5.46997 -16.7928
lclavicle 1.11319e-014 -3.73715e-014
lhumerus -388.907 -39.4468 -287.074
lradius 32.6718
lwrist -26.5638
lhand -25.369 -17.0199
lfingers 7.12502
lthumb 1.15516 12.9567
rfemur -26.112 -15.1638 -11.5088
rtibia 109.495
rfoot 36.3232 13.5481
rtoes -2.04776
lfemur -37.4997 -3.44445 -0.323434
ltibia 119.817
lfoot 30.5369 -8.96362
ltoes 5.92461
627
root -0.412288 1.26491 23.8697 -470.005 -178.44 368.149
lowerback 23.8434 1.13436 0.646098
upperback 8.32982 0.0513762 -3.83486
thorax -4.09872 -0.584996 -4.4962
lowerneck -19.0155 -7.1372 -4.6796
upperneck 0.528019 -9.60845 8.18296
head 3.77403 -4.60234 2.40584
rclavicle 0 -5.96354e-016
rhumerus -218.547 -194.478 109.51
rradius 54.3246
rwrist -1.86565
rhand -20.5088 12.9018
rfingers 7.12502
rthumb 5.84856 -16.9975
lclavicle 0 -5.96354e-016
lhumerus -389.059 -39.5173 -286.788
lradius 31.9424
lwrist -26.8542
lhand -24.9004 -16.7616
lfingers 7.12502
lthumb 1.60772 13.2121
rfemur -26.1132 -15.1615 -11.5003
rtibia 109.49
rfoot 36.32 13.5553
rtoes -2.10877
lfemur -37.4709 -3.47034 -0.330416
ltibia 119.804
lfoot 30.5022 -9.02037
ltoes 5.7768
628
root -0.411796 1.26538 23.8698 -470.002 -178.432 368.13
lowerback 23.8478 1.13093 0.63112
upperback 8.31854 0.0446886 -3.83586
thorax -4.11405 -0.587852 -4.48699
lowerneck -18.9671 -7.12912 -4.71797
upperneck 0.485068 -9.59151 8.2149
head 3.75619 -4.59463 2.42535
rclavicle 3.81667e-014 -8.34896e-015
rhumerus -218.606 -194.564 109.176
rradius 53.3063
rwrist -1.25861
rhand -20.1301 12.6426
rfingers 7.12502
rthumb 6.21424 -17.2463
lclavicle 3.81667e-014 -8.34896e-015
lhumerus -389.2 -39.4999 -286.525
lradius 31.2126
lwrist -27.1463
lhand -24.365 -16.4659
lfingers 7.12502
lthumb 2.12484 13.5032
rfemur -26.1134 -15.1809 -11.5206
rtibia 109.489
rfoot 36.3119 13.5679
rtoes -2.13377
lfemur -37.4504 -3.46933 -0.350075
ltibia 119.794
lfoot 30.4781 -9.05652
ltoes 5.61014
629
root -0.411413 1.2664 23.8699 -469.993 -178.43 368.105
lowerback 23.8308 1.14014 0.624888
upperback 8.3171 0.0560774 -3.83317
thorax -4.10634 -0.582069 -4.48324
lowerneck -18.9584 -7.12941 -4.72902
upperneck 0.481716 -9.59031 8.22488
head 3.75491 -4.59384 2.43052
rclavicle 4.77083e-015 1.39149e-015
rhumerus -218.645 -194.585 108.857
rradius 52.2279
rwrist -0.645656
rhand -19.7392 12.4246
rfingers 7.12502
rthumb 6.59157 -17.4528
lclavicle 4.77083e-015 1.39149e-015
lhumerus -389.306 -39.5448 -286.26
lradius 30.465
lwrist -27.3605
lhand -23.7748 -16.1631
lfingers 7.12502
lthumb 2.69481 13.7996
rfemur -26.1259 -15.1734 -11.5148
rtibia 109.481
rfoot 36.321 13.5233
rtoes -2.06097
lfemur -37.4397 -3.48466 -0.354089
ltibia 119.79
lfoot 30.4859 -9.03405
ltoes 5.69073
630
root -0.410509 1.26668 23.8699 -469.998 -178.434 368.094
lowerback 23.8593 1.13978 0.641628
upperback 8.29662 0.0583324 -3.84921
thorax -4.14231 -0.580573 -4.51166
lowerneck -18.9308 -7.13236 -4.72081
upperneck 0.491157 -9.59926 8.24168
head 3.75499 -4.59789 2.43402
rclavicle 1.59028e-014 -6.04305e-014
rhumerus -218.701 -194.575 108.525
rradius 51.134
rwrist -0.0121902
rhand -19.2642 12.1325
rfingers 7.12502
rthumb 7.05008 -17.7301
lclavicle 1.59028e-014 -6.04305e-014
lhumerus -389.479 -39.6843 -285.982
lradius 29.7288
lwrist -27.44
lhand -23.1918 -15.8659
lfingers 7.12502
lthumb 3.25792 14.0889
rfemur -26.1219 -15.1941 -11.5193
rtibia 109.481
rfoot 36.3413 13.5222
rtoes -2.04544
lfemur -37.4215 -3.50993 -0.362162
ltibia 119.786
lfoot 30.4626 -9.07082
ltoes 5.5348
631
root -0.409093 1.26796 23.8703 -469.996 -178.436 368.081
lowerback 23.8569 1.14725 0.641011
upperback 8.29015 0.0678841 -3.85322
thorax -4.14737 -0.575734 -4.51826
lowerneck -18.9091 -7.14251 -4.75974
upperneck 0.484718 -9.61075 8.30038
head 3.75582 -4.60193 2.45738
rclavicle 4.45278e-014 -4.39314e-014
rhumerus -218.728 -194.497 108.222
rradius 50.0072
rwrist 0.744688
rhand -18.7359 11.8274
rfingers 7.12502
rthumb 7.5601 -18.0175
lclavicle 4.45278e-014 -4.39314e-014
lhumerus -389.655 -39.8475 -285.669
lradius 28.9699
lwrist -27.4026
lhand -22.628 -15.6171
lfingers 7.12502
lthumb 3.80234 14.3287
rfemur -26.11 -15.2207 -11.5275
rtibia 109.479
rfoot 36.3194 13.5864
rtoes -2.23882
lfemur -37.3943 -3.52944 -0.361154
ltibia 119.766
lfoot 30.4639 -9.06932
ltoes 5.57593
632
root -0.408688 1.26855 23.8705 -470.003 -178.445 368.056
lowerback 23.8836 1.14064 0.64606
upperback 8.26981 0.0618122 -3.85099
thorax -4.18339 -0.578069 -4.51766
lowerneck -18.8518 -7.12588 -4.77893
upperneck 0.446862 -9.58443 8.3108
head 3.7355 -4.59031 2.46852
rclavicle 1.43125e-014 -4.8901e-014
rhumerus -218.717 -194.458 107.932
rradius 48.8281
rwrist 1.51028
rhand -18.2062 11.5531
rfingers 7.12502
rthumb 8.07134 -18.2728
lclavicle 1.43125e-014 -4.8901e-014
lhumerus -389.88 -39.9957 -285.306
lradius 28.1838
lwrist -27.2008
lhand -21.9674 -15.3411
lfingers 7.12502
lthumb 4.44026 14.5924
rfemur -26.1016 -15.2237 -11.5141
rtibia 109.469
rfoot 36.3048 13.6023
rtoes -2.32432
lfemur -37.3764 -3.55055 -0.366888
ltibia 119.763
lfoot 30.4476 -9.17507
ltoes 5.28864
633
root -0.408014 1.26932 23.8707 -470.004 -178.444 368.035
lowerback 23.8903 1.14786 0.642139
upperback 8.26106 0.0704671 -3.85087
thorax -4.19561 -0.573785 -4.51775
lowerneck -18.8505 -7.1331 -4.78078
upperneck 0.473954 -9.59406 8.31139
head 3.74441 -4.59413 2.46753
rclavicle -1.90833e-014 2.5842e-014
rhumerus -218.672 -194.339 107.672
rradius 47.6017
rwrist 2.31054
rhand -17.5921 11.258
rfingers 7.12502
rthumb 8.66396 -18.5442
lclavicle -1.90833e-014 2.5842e-014
lhumerus -390.093 -40.2149 -284.935
lradius 27.3773
lwrist -26.8673
lhand -21.3372 -15.1191
lfingers 7.12502
lthumb 5.04874 14.8008
rfemur -26.0939 -15.2415 -11.5238
rtibia 109.467
rfoot 36.3048 13.611
rtoes -2.28446
lfemur -37.3452 -3.57302 -0.374545
ltibia 119.746
lfoot 30.4384 -9.16042
ltoes 5.28009
